<?xml version="1.0" standalone="no"?>
<!DOCTYPE svg PUBLIC "-//W3C//DTD SVG 20010904//EN"
 "http://www.w3.org/TR/2001/REC-SVG-20010904/DTD/svg10.dtd">
<svg version="1.0" xmlns="http://www.w3.org/2000/svg"
 width="256.000000pt" height="256.000000pt" viewBox="0 0 256.000000 256.000000"
 preserveAspectRatio="xMidYMid meet">
<metadata>
Created by potrace 1.11, written by Peter Selinger 2001-2013
</metadata>
<g transform="translate(0.000000,256.000000) scale(0.100000,-0.100000)"
fill="#000000" stroke="none">
<path d="M0 1280 l0 -1280 1275 0 1275 0 0 1280 0 1280 -1275 0 -1275 0 0
-1280z m644 924 c12 -12 16 -38 16 -115 l0 -99 100 0 c87 0 103 -3 120 -20 11
-11 20 -27 20 -35 0 -8 -9 -24 -20 -35 -17 -17 -33 -20 -120 -20 l-100 0 0
-99 c0 -107 -10 -131 -52 -131 -47 0 -58 26 -58 132 l0 98 -96 0 c-114 0 -134
8 -134 55 0 47 20 55 134 55 l96 0 0 97 c0 76 4 100 17 115 20 22 56 23 77 2z
m1536 -259 l0 -55 -235 0 -235 0 0 55 0 55 235 0 235 0 0 -55z m-189 -975 c13
-7 19 -21 19 -45 0 -35 -20 -55 -54 -55 -20 0 -56 35 -56 55 0 20 36 55 56 55
8 0 24 -5 35 -10z m-1433 -136 c26 -18 29 -56 6 -78 -14 -14 -13 -18 13 -41
35 -30 41 -30 77 -1 27 23 28 24 12 48 -12 19 -14 32 -7 50 13 34 28 38 127
38 71 0 87 -3 104 -20 11 -11 20 -25 20 -31 0 -22 -21 -47 -47 -57 -16 -6 -58
-36 -96 -67 l-67 -57 82 -68 c46 -38 89 -69 97 -70 23 0 51 -31 51 -56 0 -41
-35 -54 -140 -54 -64 0 -102 4 -114 13 -24 18 -24 66 0 84 18 14 17 16 -20 49
l-39 33 -39 -31 -39 -31 20 -21 c27 -29 27 -61 -1 -80 -17 -12 -48 -16 -120
-16 -85 0 -101 3 -118 20 -11 11 -20 27 -20 35 0 18 35 55 53 55 9 0 130 92
170 130 11 10 -116 116 -160 135 -28 12 -33 19 -33 49 0 23 6 39 18 45 28 17
184 14 210 -5z m1672 -124 c11 -11 20 -27 20 -35 0 -8 -9 -24 -20 -35 -19 -19
-33 -20 -271 -20 -153 0 -258 4 -270 10 -25 14 -26 75 -1 89 10 6 117 11 270
11 239 0 253 -1 272 -20z m-239 -240 c13 -7 19 -21 19 -45 0 -35 -20 -55 -54
-55 -20 0 -56 35 -56 55 0 20 36 55 56 55 8 0 24 -5 35 -10z"/>
</g>
</svg>
